<mxfile host="Electron" modified="2024-03-19T21:07:23.337Z" agent="Mozilla/5.0 (Windows NT 10.0; Win64; x64) AppleWebKit/537.36 (KHTML, like Gecko) draw.io/21.6.8 Chrome/114.0.5735.289 Electron/25.5.0 Safari/537.36" etag="TbLKlPR9XCyaXcbo1yO8" version="21.6.8" type="device">
  <diagram name="Страница — 1" id="_NNJ8Qyopue1inblywc9">
    <mxGraphModel dx="461" dy="461" grid="1" gridSize="10" guides="1" tooltips="1" connect="1" arrows="1" fold="1" page="1" pageScale="1" pageWidth="827" pageHeight="1169" math="0" shadow="0">
      <root>
        <mxCell id="0" />
        <mxCell id="1" parent="0" />
        <mxCell id="gyxe0gYEYOUFi3LcDs3f-27" style="edgeStyle=orthogonalEdgeStyle;rounded=0;orthogonalLoop=1;jettySize=auto;html=1;entryX=1;entryY=0.5;entryDx=0;entryDy=0;" edge="1" parent="1" source="gyxe0gYEYOUFi3LcDs3f-24" target="gyxe0gYEYOUFi3LcDs3f-17">
          <mxGeometry relative="1" as="geometry" />
        </mxCell>
        <mxCell id="gyxe0gYEYOUFi3LcDs3f-36" style="edgeStyle=orthogonalEdgeStyle;rounded=0;orthogonalLoop=1;jettySize=auto;html=1;exitX=0.25;exitY=1;exitDx=0;exitDy=0;entryX=0.75;entryY=0;entryDx=0;entryDy=0;" edge="1" parent="1" source="gyxe0gYEYOUFi3LcDs3f-24" target="gyxe0gYEYOUFi3LcDs3f-25">
          <mxGeometry relative="1" as="geometry">
            <Array as="points">
              <mxPoint x="316" y="250" />
              <mxPoint x="197" y="250" />
            </Array>
          </mxGeometry>
        </mxCell>
        <mxCell id="gyxe0gYEYOUFi3LcDs3f-24" value="" style="rounded=0;whiteSpace=wrap;html=1;" vertex="1" parent="1">
          <mxGeometry x="271.38" y="192" width="180" height="40" as="geometry" />
        </mxCell>
        <mxCell id="gyxe0gYEYOUFi3LcDs3f-28" style="edgeStyle=orthogonalEdgeStyle;rounded=0;orthogonalLoop=1;jettySize=auto;html=1;exitX=0.25;exitY=1;exitDx=0;exitDy=0;entryX=0.75;entryY=0;entryDx=0;entryDy=0;" edge="1" parent="1" source="gyxe0gYEYOUFi3LcDs3f-16" target="gyxe0gYEYOUFi3LcDs3f-17">
          <mxGeometry relative="1" as="geometry">
            <Array as="points">
              <mxPoint x="194" y="150" />
            </Array>
          </mxGeometry>
        </mxCell>
        <mxCell id="gyxe0gYEYOUFi3LcDs3f-35" style="edgeStyle=orthogonalEdgeStyle;rounded=0;orthogonalLoop=1;jettySize=auto;html=1;entryX=0.941;entryY=0.055;entryDx=0;entryDy=0;entryPerimeter=0;" edge="1" parent="1" source="gyxe0gYEYOUFi3LcDs3f-16" target="gyxe0gYEYOUFi3LcDs3f-25">
          <mxGeometry relative="1" as="geometry">
            <Array as="points">
              <mxPoint x="470" y="115" />
              <mxPoint x="470" y="260" />
              <mxPoint x="238" y="260" />
            </Array>
          </mxGeometry>
        </mxCell>
        <mxCell id="gyxe0gYEYOUFi3LcDs3f-16" value="" style="rounded=0;whiteSpace=wrap;html=1;" vertex="1" parent="1">
          <mxGeometry x="121.38" y="80" width="330" height="70" as="geometry" />
        </mxCell>
        <mxCell id="gyxe0gYEYOUFi3LcDs3f-19" style="edgeStyle=orthogonalEdgeStyle;rounded=0;orthogonalLoop=1;jettySize=auto;html=1;exitX=0.75;exitY=1;exitDx=0;exitDy=0;entryX=0.116;entryY=0.007;entryDx=0;entryDy=0;entryPerimeter=0;" edge="1" parent="1" source="gyxe0gYEYOUFi3LcDs3f-1" target="gyxe0gYEYOUFi3LcDs3f-16">
          <mxGeometry relative="1" as="geometry" />
        </mxCell>
        <mxCell id="gyxe0gYEYOUFi3LcDs3f-30" style="edgeStyle=orthogonalEdgeStyle;rounded=0;orthogonalLoop=1;jettySize=auto;html=1;entryX=0.25;entryY=0;entryDx=0;entryDy=0;" edge="1" parent="1" source="gyxe0gYEYOUFi3LcDs3f-1" target="gyxe0gYEYOUFi3LcDs3f-17">
          <mxGeometry relative="1" as="geometry">
            <Array as="points">
              <mxPoint x="90" y="170" />
              <mxPoint x="119" y="170" />
            </Array>
          </mxGeometry>
        </mxCell>
        <mxCell id="gyxe0gYEYOUFi3LcDs3f-31" style="edgeStyle=orthogonalEdgeStyle;rounded=0;orthogonalLoop=1;jettySize=auto;html=1;exitX=0.25;exitY=1;exitDx=0;exitDy=0;entryX=0.12;entryY=0.003;entryDx=0;entryDy=0;entryPerimeter=0;" edge="1" parent="1" source="gyxe0gYEYOUFi3LcDs3f-1" target="gyxe0gYEYOUFi3LcDs3f-25">
          <mxGeometry relative="1" as="geometry" />
        </mxCell>
        <mxCell id="gyxe0gYEYOUFi3LcDs3f-1" value="" style="shape=parallelogram;perimeter=parallelogramPerimeter;whiteSpace=wrap;html=1;fixedSize=1;" vertex="1" parent="1">
          <mxGeometry x="40" y="10" width="100" height="30" as="geometry" />
        </mxCell>
        <mxCell id="gyxe0gYEYOUFi3LcDs3f-13" value="" style="shape=image;verticalLabelPosition=bottom;labelBackgroundColor=default;verticalAlign=top;aspect=fixed;imageAspect=0;image=data:image/png,iVBORw0KGgoAAAANSUhEUgAAABwAAAAnCAYAAAAcsCj6AAAAAXNSR0IArs4c6QAAAARnQU1BAACxjwv8YQUAAAAJcEhZcwAADsMAAA7DAcdvqGQAAAHTSURBVFhH7ZdNzgFBEIZrvhPgCNhZSAQre27gDJxA3IATWNgjsRWJjYUQiQ0rKzcgjuDrt1TL+OnumaQjFvMklap0ybxT3VU9EdwU9EX+xH+NRNA7iaB3EkHv/J5gv9+nTCbDNh6PZfUOcvl8noIgoEqlQofDQTIWcHmbaLVauNgflk6nef18Pt/K5fJTTueRs2GssN1u0263o/1+T7PZjNeu1yv7RqNBuVyOTqcTXpjUi/E68tPplGMjd9136vX6TYlxvFqtHhV0u12uPAyqQh72mnvFuqUaVeFDEFv5CS2IF7URqUvX6zV7bNlwOOTYRCqVkugzkQQXiwX7ZrNJxWKRYxOlUkkiA1KpkfD5jEYjWX1GnzEMsQ1nhcfjUSKiarUq0TPz+Zy9OmOq1Wocm3AKbjYb9nhYNpvl+JXJZMK+0+mwtyKVGkHX4Wem7sM2Ix9l6IFTEA+DfRoHzCmEkHedncYqGG4G2GAwkMy9MojBMKdRsQr2ej0WUtcY3zDwWlyvRdnGMFZBNXf8cNd1FQdrl+qBdw17HIyC+Lbpr0OhUGDvA6PgdruViJzDHAej4HK5lIjocrlI5AE5yzfCHYnWN92jcUn+H3onEfTOlwWJ/gGReAGp1EeEcAAAAABJRU5ErkJggg==;" vertex="1" parent="1">
          <mxGeometry x="81.38" y="13" width="17.23" height="24" as="geometry" />
        </mxCell>
        <mxCell id="gyxe0gYEYOUFi3LcDs3f-15" value="" style="shape=image;verticalLabelPosition=bottom;labelBackgroundColor=default;verticalAlign=top;aspect=fixed;imageAspect=0;image=data:image/png,iVBORw0KGgoAAAANSUhEUgAAAc4AAABZCAYAAAC38sT/AAAAAXNSR0IArs4c6QAAAARnQU1BAACxjwv8YQUAAAAJcEhZcwAADsMAAA7DAcdvqGQAAB5ESURBVHhe7Z1bqB7V+Ydn/+/VJvUqiBcmBYNHYqJiqqBgk2oRQWvUighqrFaE4rFJ76ppUrSCVHcUhVxpRUtFGuMBVOKBRJuSloiCRlobvDFaD/fmP8/K/HbezJ7DmsN32N/3PrD2mj3rmzUza73rfdd5Zg6lJI7jOI7jRPF/me84juM4TgRuOB3HcRynAW44HcdxHKcBbjgdx3EcpwFuOB3HcRynAW44HcdxHKcBbjh74M9//nNy9dVXJ4sXL87OOAsN8nDVqlXJ22+/nZ1phmSg7fWO4ywc3HB24J///GeybNmy5LbbbktWrFiR/P3vf89CnFHw6aefJjMzM8natWuT2OXJX375Zfj9Qw89lDz77LPJj3/84yykGRjN22+/PbnhhhuCPDiOM7m44WwJLYwLL7wwWbRoUfLxxx8n99xzT3LSSSdloc4o+Oijj4J/1llnBT8GjCbG8+WXX+6cfxjd3bt3J6+++qobT8eZYNxwtoCWphQjCveHP/xhOHZGy759+4J/2mmnhZZnHX/4wx+S/fv3h5ZmX3lIPNu2bUtmZ2eTl156KTvrOM4k4YazBTfffHPyv//9L3nsscfcaI4Rr7/+evCXL18e/CpoZW7evDl0sfbdU0DLc+XKlckdd9yRnXEcZ5Jww9kQumgZy1y6dGlQus748N577wX/jDPOCH4Vzz//fKj8XHvttdmZfrnppptCa5beCSceJldRrrxsDQbNy6C3hcqj0w43nA357W9/Gyae3H333dkZZ1Soy5zZsHTNYggBxYDirZrh+sYbbwS/aDIQSoX4cMSlc8ya1jn+r+Lcc88N/iuvvBJ8pxpN0jr//POTr7/+Orn++uuzkMlDsiVXJ0t9cswxxyTr168PvS0/+tGPQkPAaQFfR3Hi2Lt3L1M1g+PYGR0bNmwI+bBu3bpD27dvD47/t2zZEvImNaZz/xexaNGiQytXrsz+mw/XcT2/ufXWWw+99dZb4XzaigznquIW/GbNmjWHvv/+++zMwubgwYMhLXivPiG/yA/cM888k52dbJBb0hEn2Rom5GVaUQn3J0+dZrjhbICUNQXcGR1pKzPkw9atW7MzR/IGAwooBvKJc0WVHM5j1MpAmfEbHMbSogoU8X/xxRfZ2fnwm6VLl06E4aSSoPTE9QVpW5VPk4oqZn2mZRtkwCk/TjzeVduAPXv2BP/ss88OvjN86Fpixmpq9JJbbrklO5uEJSBwzjnnBJ9JWxon69pdmp88xBhqquxD1/CHH36YnS2Gcc6FDDOD6Zq+995757rC+yRV3CHetBIUNTY9aTCJbJQ8+uijYb7Gpk2bfBZ4A9xwNkAKuMk6Qadf2KggrfDNm7HKhC2UkJ3ljHEbFIOuPDHmxxhtV9d2chLXMuZ43XXXBeOWtsCDgu0TO9HOVoKmAc0A/8lPfhL8UUF5uf/++8OxzwJvwOGGp1MHXUokF27z5s3ZWWfYKA/suJC6VfPdTXTFcr5o3IzzsV21RSjunTt3ZmfmQ3jbrlp7/y6u6h2r4P5049luar0zrg/SlmyIa1rGNS1KRw0tjBrkdFrzog3e4ozk888/z46cUVLUinz33XeDz8YHgu336CHg9xdffHF29gic7zIdP7b7V7Nym8Lsx9RQdXZte0eYbUyLcFC7YdEtqG7sovyZZGwvwMknn5wdjRZ6FYAeHSeCzIA6NdgWgLc4+4HWDDP6VNvFMWOVST+41LjNmzCiWZ12RmtqIMI5tY6YGKRZtWU1el1Ths1v4rMorKo1qd/QCp6UWbVKM1xXlI/EGQP5KDnJ9yzQStJMZ36TbzXxv64tCi+DPCySz9jr+Z0m3+CQZ/7XOeJtgyZq4fLPQpiel2eNnXBl5d32MjjFuOGMBEUuwXLD2R0KPGlJIbfGzc42xOULMf+ri4/fYtQUD2HEy3GRUrEoP8sMq1UkKE8ZT85LSVd1syn+SZop2qfhlHKPmc0pWbFO6SoDnHeSm7rwIshrGTd8/RZfeU+8ZeSv17NyvSp0dXGUkX8f5By4p54tHy7ZrYLf6JqqcuMcxg1nJFahu+HshjWaRYVa6Ux4EVxDfhQpCs7JoFZBOEqlTHlZw2kNBg5lSHgVPEfZ8y9U+jKcVklTwagCWSGfqKTY60h/jC7prLywZZTryFvCNQ7N7+31ZUiuyOc8GEHFUVYp0vVFssV76Pq6d8+j9+G+Nh7gvDXy1sDG3od05vcxlZlpxw1nJG44+8EqnjLlpfAyo2ZRy66pEgLlaVHrg2fTczRF11a1SBcifRlOm7ZVBgxQ4rYFpOtkNG0FycZLWFV42X0lE1UtNcXBb/Po+rJKk32GMsNbBumvaxQPz0la5MuKrWTElCNQ/uI71fjkIGeosB4Q0sJZuN2dnbATs65PW+dpi7sm8Cm4VLmGiRF97dtJPJdddlmSKqvkkksuyc42h+Ug+a3Z2jiWlCxkHnjggbn1uEz4EnzRpuqrNmllqDJ8yZIl2dERiF/ySf6VXVuGvV5LPPJ88MEHwU8NXuN1q3yJSdd8++23wQfWMPPBCYt9dptuTj+44YzkvPPOy46OFlonHs10hbI1Y3ZDgRhjqI0P2i6e12fhMDB2tqNm6kLsWkiMHft/oujziszpjr63CuwVnZ/xa8vl73//+3nhMlppa7BwtvBrr72WHSXJVVddlR3Fw4cDAKNYtkn9v/71r+B3XQcs+WTziCeffDIcl/GDH/wgO3L6wg1nC7SDkNMMq5i0w0+eHTt2BD+mRo4hRnHQem0LRhPjeeedd4YvmmD82HRbLQc488wzw/kqWLrxpz/9KXnxxRd7MZq0xg8dHkrp5Hi3SeGdd94JPrJRtGFCXbh6J+hhKOKvf/1r8Ktkr6oS9dxzzwW/alMDVfQuuuii4LdF8fAudeVkxYoV2ZHTF244naEhxUX3aFk3GN1rEFMjp9XQl3GghfD+++8Hg0UXbt4AFXUrW7ge41n3O6c9MhZlrbnY8NWrVwc/j3pDqgzfrl27sqOje6GAXZCgzFBR+aILGfLXNoHhAN3r8ssvD34eW9Hrci+nGDeckViFGLv43TkaPhcFZUYTwyPF0rVG7kwW1lhccMEFwc9TFY4h0V67Rb0ddoy7qoWmyh+tUqsT6nokgHFPKmHQpYJlhzPKKpi258Yrc/3jhtMZC+h25dua4tRTT82OnElj+fLl2dGRccc6du/enR0dfb2whqsoXGOCZb0dBw4cyI7KwbiqR6SsVVsGlUJ9aJ1n6ALvggHGKJbt7KTnvO+++4Ifg57P9+Kuxw1nA+xYWtvNs50k+eSTT7Kjw6CQGKthJqMYl63IRgXyxYSlrm7jxo1ZjOMDhgulD5999lnw67Djl0VjenYyV1G4NlXno+eCiprKcd04ITz11FPB5xnuuuuucCzYIrEM7sEH8CXf1nDzDE2/SqJ3KWttqueG57zxxhuzs9VQBtUiP/HEE4PvVJDWXJxIWGBMkuHK1oE55bCeTOmntXmkI+vtCNOi7rTAh7Bpxq736+L6XJNHPinesjWOsUgWiDMG3bvsfTgfE04Z5tm5P3Jm30O/ISwP6ydnZmZCuF1XaiE+wlnDqbXB2sCB/JT+0DvrGfTbWIjDxmPhOfUcTXSU3VCh6fNMI244G2A3QSgrPE45dvMD66SotLMLCmbaQaGj+Lq6povs83A98dhKo/IIZds2fq6VIYpR1Lpv0aYDUBcuoyiHcck/O//L6LChhoyqjB+uqtxb/WCdriFOvTOu6BnqIC9s3HbjD/ucTTffaFqRmXbccDZAu9TgygqoUw0Fmho5aYhv01Hn2+wC5PRP3thUuTZoz+G6/LbGguM8GB+FlxkMfiP54r3KDBZGXC1BxYkxoVIXY+D5na7lPvZ5McRr166tfYYqZJx5F+6ld7LnbCs6Fj2zNwjicMPZAFuA3XDGQ2FE+VQVaJSS0raNQnEWHqqIovCdONTyL+pObgvlU/nQxuhOIz45yBkoTHy45ppr5iYelKFdV1IDGzVRw1n4sEkB+Z1WmsKmE049Wot6+umnB78rTArSbPZHHnmkdKmYczRuOJ2BQmGE9evXlxZKCu/mzZvDMTv4ONMD28UtWrQo7NQUsxZymmF2riqgp5xySvC78otf/CLEmbZgO+2tPG244WzJcccdlx05Mfz73//Ojubzq1/9KhTedevWNV4f5yxs6F1gUwGMJ5vjs5TCKcbuWtR1UwMqqz/96U/DZi4YTd9buRluOFvSV41v0mH9GszOziaPP/54KLCCblzWGrJYG6P56KOPZiHONIHxZNcf1iXSrY9MeOtzPtq1CGw5agIbjdAtzscI2FRi69atbjRbMMNAZ3bs1ICiv/TSS8OxJ1s8FNYHH3ww7AWrbdFg6dKlYV/Qa6+91rcFcwIYTDbLB299Hs2yZcvmtqSkhY7Ba9pDQ3fvFVdcEYZO2BzBxzTb0avhRNC3bds2t5crmUvG/uxnPwtjXXzeZiEXBnZh2bRpk3dtOI7jTDG9dNXSbcBWVnSzsM8htSLsMa0LZoHRSsOYLl68OLuiGfoob1fXBd6R7kbwCSyO4zjTS2fDiUFhTAIjSX85X2zXxsP4dAmIsq8aLAT++Mc/hgksW7ZsCV2MjuM4znTS2XAyIxKjuWbNmsKPx1rafvWc1msfrg2Mz9HdrC5avtXoOI7jTC+dDCcD+fp8jWZP5vnmm2+Cz3hn2SdwxhVmn9G61KxPH9d0HMdxOhnOp59+Ovjs/lE2K3LPnj3Br/qq+rhC65LxWowmxnMcP9HkOI7jDJdOhlMzZMuMIuOfmmF74YUXBn+hQSuZ96Sblu5anyLvOI4z3bQ2nHb7p9WrVwc/z2uvvZYdddswoGiGbBvXhd/97nehu5l9HQ8ePJiddRzHcaaN1obzu+++y46S5Nhjj82OjsaOey70Be4sFGaSEJWFhx9+ODvrOI7jTBudumqrYDxQu1wwBtqFohmybVxXtJxG6zkdx3Gc6aMXw3ngwIHs6DCMA2omKrA5wiRwwgknBJ9WJ13VjuM4zvTR2nAuWbIkO0qShx56KEwEwrGEg3HAv/zlL3Mtzkn8vuKHH36YHQ0WlvzYcVrf/NpxHGe0tDaczDZVi5INEI4//vjg+K4iu/jTOtOG3ueee27wJ4nPPvssOxosjA1TAfHdihzHccaDTl21fAaKZRoCQ4rRpIWpGbXMRPUv+neDSgpfRnAcx3FGT2PDSXcsY5aMYzLTlN10NPmGczKSO3fuDP5C3PjAWVjQfc2M56afWHLiYDyfihvDMJR/xxk2gyjjXeS6seHUhu7aSq8IHkIbBVx//fXBnwS+/fbb7MgZB5Az5PH8889Pvv7664mStXHimGOOCR9rYBiGDyD7JiDOsBhkGe8k12lLMZq33nqLNR3BVbFly5bwm6VLl2ZnJgO9F27r1q3Z2eGwZs2acF/ywDl0aO/evYcWLVoU3DPPPJOdnVyU/3L8P2wOHjw49xy33nprdtZpis1H3IYNG7IQxzKsMp6X6++//z4LKae14dy/f3929mh4Wf2G40kCAde7DduATaLhRD54r6ZGANmjME2ijFVBZU3yRyVuVKxbty48wzAUPkoNZcb9Jgm9E2779u3Z2cli5cqVrWV1FGW8iVw3lkYpcBLFvhAvSgKphjCJwqB3x0264ZSSHkRNzypDXFPDuWrVqnDdsFv9o8ZWXEdZgSL/6E3iOQZZzqVP9M6ThO29Ij0nEb1fG1mV0R1mGW8i162kEWWKsrNCjeMcLzqpgmAN57DfcdiGEwEif/smrwxxTQwnsjczMzNxwwAxWMM56jJGPvAcg8gHlJYUmHWjhjTnvWmZdC2H6r0alRyTxlReB2WYusjqIGWrjlj9MlnVuAEjQcANm2EaTgl9n11xCCTCiKOwUnCVlk0MJ9dzDfFNG2qlUBsfB/rOC+QOWaBihezx/7Jly+bkZFTIyNgKX9dyqPJMvMOCHkLSVfmGQ6YGQRdZHXUZl8xV3d8NZwMkbINoidXR1XDKGHZ1TYychYKEs7XPpnFaYzvqFtcokAz0WaHpglpNfRlyZJTWnJ0/sXbt2rk8HyYyMtZYcoyhQw67ojgH3RVJWnIPayxxpDOGYVDlqK2sjkMZ37hxY7h/lVy74YyEgqQMbWs8uiBBXKiGs4imcWpcdBTpPw5IiY9La9vKlDV2fTJMw6l5GkVGpg9jKWy6DWLiCwYHGdE4oRz/D9JYWtrK6jiU8Ri57rRz0DRhP6PWhU8//TTs5cvCW+0/y4YSjz/+eHCLFy8eyAbybN2X5netS2un4fepwBeGv/zyyyF8FLz66qvBP+uss4JfB+nIGjDSGN8uctaCasJIc77mYyFc1xaFl8F1Rfkbu0ZM13NPXc9zcH99//bss88OfhNeeumluWfKvwthPCNh/Ia8j2H58uXZUZK899572dHCApmg3PH+qcFM7r333rDFZWosQzqkRibk3SWXXJJd0Z0PPvgg+Klx6XVXNZ4TmWbr02uuuSast0+NZSjTvNP7778fwtm4pk+Uhsip5FayynOQtsg0uq+OJmWc+xKv5NbqTYXpeXhvW/6riJLrVBk6EdhaSNuuMmpfXE+N1tZgNR4gl6/l8L9qwdx7kDVG7kNtcRjofWNql7yzfj87O5udLYeavGq9cuoWUz7kHedjwovg+WiZ8Dvb3YifKo5wvm48y44LST6IV7VwHPnTlKL3UUvHxm0d8h6D0rhtmagjVcZzz9QXpClpovySI92RkUGWL9B9+2hVISfkoZV1ZIT8yOuRQUB6cW8c8otccU7PQVrqN5yrkhN+q3dQWS2D3+Zb1KQrazCLyj6uSXrXPa8bzkis8tm8eXN2Nh5dL2HKo7iLFKPC5BDQQaDKwaDiz6P3iRFoW3HZuXNndrYYCk5a05x7DxUw/kfRUChkBG28KCDO23B+r/CqdNE9KLx5eB7FIYOVx46r5OXDKpSi+KvQ+/AexJPWvkM8vDdKgfvJSEpGm9yHvOP3fRiBIvo2nOShVaqUN5T0MIyM4J7cu0s5Iz8VD453Ij/L5GsQqNKFDNn0U8WAcGHLWZlRtL+RTBYho8l9OOa9uQYZ/OSTT0JakLaE6beKNzZ96uTaDWckZIQSv6nhtIqzTCAUboVt2Ejgh6VE9M4xStcWqjrDqVq4UCHgHMomX3gUL2FV4WWKTrJBgaWgFlEVB+8mg1aW9rq+riaeB6WiSgDoPjxHkZGWkiEdYqhTMF3p23DqeXE2XYYF+av7VxmHOqw+GoXO4J7cGzn54osvsrOH4RxheVmVfqGcFGHLeFXakIbko2RXaUH8yG8+X23lNzbP6+TaxziHAOMmkGZCGGvMY/veB/UlGcbO6Ouvcnx8HFLBLwzHMY4x7jAexccHRFoLDT5jQI888khpGqcFsjL8xBNPzI6OwLiN8jdVJq3Gj2644QasQrieL+HksWM3TT/R98ADD8xtjG3l7Iknngj5nX9e/U9aTCIXXXRRGFsExt8YG2N8Lmb8rQ/smJkdS2vKqaeeOvepwdnZ2blx+EHMj8iDLuGesG3btjCmKkhHyU5eVi+//PLgM/5JHG2hjDDXQrKqfdMZH+WjIpJ3ceyxx2ZH/X0O0g3ngEGQXnnllXB8xx13BD+P/Sj2JH67dJRgLFSQKVT5SR7WmKQ11nnhVhEVTcrR5/Pgqquuyo7iQYHo+W655Zbg57Hy0aVitXv37uwoSe6+++5CIy1kXCaNe+65J/nqq6/CxB/ym7T/5S9/GYwQk1gworGTSNqwb9++4Kcto06TdJBTKoRpy2zu046bNm1KzjzzzFAZwIgOqjJw//33B593yDcEPvroo+xovqzyjeZBoAlFVB5+/etfh+MyjjvuuOyoG244IznvvPOyo2ZYxXrOOedkR0ezY8eO4KOsBtXirJtVi+LAFYVZN8pZtW2wxuI3v/lNdnSEuvBdu3YFHyVRZGheeOGF4FflXVUrICbv9Yk+eiy68M4774Q85F5lRlq0mbm7kKBVQg/EwYMHgxElf5mFihGlBaXwvo2olHxfn1ukXNO7QmVg+/btc5UBjKitDPRlREkPNQR+/vOfB9+CjEGRrA7i61I8D/kGVAZt67eIU045JTvqhhvOAcOHvaGqhqku0lEpK5YjUNj4xM6koYKMEikyTHXhyr8yRSclUqUIZXwhXwHbs2dP8MvyHsWAAge6GbsgpZ3vyrLofbrea6FAmSQ9WKpBGdiyZUuQBcokXbkyopSRPpCSP+2004LfJ7RCyyoDMqJdKwO296OoMSF5LpIftbZhyZIl2VE3bMX34osvzo6O5t13382ODlc0+sANZyR8u60NfEMOyowmgqyuulEpK8b14Morrwz+OGLHg7QOLoa6Gr4Kelm4KjWrV68OvsUqoBUrVmRH83nzzTeDT0svX3BlqMp46qmn5tbEte31EFLaF1xwQfDzWOMQ27rVmF3s2tpxhh4FunLpAt27d2+yYcOGkGfIwKWXXhq6Alkb2NaI2nG9QVaS85WBrVu3BsNJ/tvKwCBa1JJnxmDzPPfcc8Ev671pU8ZljHm/sqEH3ZfWeCx1cu2GMxLbGvnPf/6THXWD7hMKoigStkGjMdiyiSnjAsoAJQb//e9/g1+H7cYp6wZVQS8Kt4quqJv9wIED2VE5PIOMb1VLrwi6eJnEI7pMJrHvUhbP3/72t+BjNMvSy8K7yagXTZxayPD+TKxSF6jGEZkUgxFtM7mFlo+6yodV1rgP3fK2MmBb1FTM2pKX/6ryQpjK4p133hn8PLaMx07ief3114OPMS4C/ab73n777cGvI0au3XA2QLXwNuMFmtkpyBxqQCqQcPLJJ2dH/YPgFs2SpRABCqEoPO9GOatWhketyDpsN07RpCtb0IvGPtTFQxqpx4DxInWdxhgXFJOU5V133ZWdPYIURR7k46abbjqq+1zPwP3zu//UYburip4bmdZMydi4Y7rJJgHN0v7444/nJhW14R//+EfwbWuTtJY8DRpVBtBFqgw0nSxDj4lkVmPvQq1EW14AWWbmOKBDqyqQTcu4Kr5lPT4PPvhg8LlvbDdtlFynhdqJRAttU8HJztSTCue8NUSsUUprSCFMa4yaxNkGu0aqi0sFMIuxG6zBUpykRQx2Pdb+iLWmyi9cEXYtXBEKTxVBeF7WpfG/XWOmdYbkZR7Wgyp+5X2eVAnP/UbxSj64v+6J4xmIh2PSognkm43Hwv/cjzDuGYtkuyz/bPrG5FcR2nUJl3/uhYbyQOlF3lLu8+uGxx0rk7YsSJZtWbCyhV+Xh03KuNVplPU8KiukcRPZue2228J1ZXINbjgbYBVhrLDba6yTcEm5I3TDRkLaRFl2BWHnvipMcqQDYXWFBSPG7ym8dUhRlRl7Gb2ycKv45fIGkPylYBLGM6mA8jvO455++ulwrghb+K2TfBTJT5kRrsJeT9x6Tu6vvGgqB3rvsuex6cd9YuGd+b2tVOD4H9mJLXvjhioa1rXJy3FAeYsMzM7OBnmyZZM84jeSEcp3rPGKLeNWvriPZIz7KAzZbiovixcvDtdW5Y0bzoYoU8mYWCjsug7fXhsrJINAiqlta6Ap3CvGlRkyIJ1mIj9krfjK8koFpKi2ChRAGV/uRz4WQfqhFKUkcBRY4o1JWwqolY98gVXlquoZqrDGmV2vbKWFZ+bZmyoXnlHPVKYQrWKLNZxK7xjXhibxV7kmFQFBOqmyRh60iUPYtO3imuixPJJ7K0/WkdaxZcBCGed6ZKsK5SV+Uflro1ORa+mXKkPvhrMhNmGr4HdkXlXiI1DK6GHXonXvUbR0u6Luuy6FfpqwiohNsLuCTEtJVRlyKXd+Oy6M0nD2yTgYTosqUn3ltYxx1fNJBrl3H8TKNbjhbMGymi+Ek+gxtRYJP0LixEMlQwI+agW2EFDPAn4fhlPGh1p+Fch/VTlxJgdkQTLWB3VlnHDCcH01OmLlGtxwtkCZRsYWdUMoA6pqS7Z244qlOSpYOE+/aiRnXVsXyGysclErt6wb3JksYlqITakq45IvXFfych1TuXTD2RIykoRGYPLGM0a52FaA0w7SXWmN763P+diaedv0IZ1RiFJiMWNHjOV5hWY6wPB0lbEyysq49Cfn2tJGroUbzg6QiXRHkehkgAwo5+mqJWPJDNtdSzeuBIHMt2FOO0hv0tIrIfOxNfM2E4sA44ucI+Mur04eyp9kbFDkyzg6l/t1GebqItduODtCgqOcZAwFRpQWp7ow5MgoziMIjjNokDUrf9516vQNhgfZGtZcDXSrlWl0KkZwmMzwJ7254ziO4zgR+JZ7juM4jtMAN5yO4ziO0wA3nI7jOI7TADecjuM4jtMAN5yO4ziOE02S/D9i1LuFriZ0wgAAAABJRU5ErkJggg==;" vertex="1" parent="1">
          <mxGeometry x="130.64999999999998" y="85" width="311.46" height="60" as="geometry" />
        </mxCell>
        <mxCell id="gyxe0gYEYOUFi3LcDs3f-32" style="edgeStyle=orthogonalEdgeStyle;rounded=0;orthogonalLoop=1;jettySize=auto;html=1;exitX=0.25;exitY=1;exitDx=0;exitDy=0;entryX=0.376;entryY=0;entryDx=0;entryDy=0;entryPerimeter=0;" edge="1" parent="1" source="gyxe0gYEYOUFi3LcDs3f-17" target="gyxe0gYEYOUFi3LcDs3f-25">
          <mxGeometry relative="1" as="geometry" />
        </mxCell>
        <mxCell id="gyxe0gYEYOUFi3LcDs3f-17" value="" style="rounded=0;whiteSpace=wrap;html=1;" vertex="1" parent="1">
          <mxGeometry x="81.38" y="191.99" width="150" height="40" as="geometry" />
        </mxCell>
        <mxCell id="gyxe0gYEYOUFi3LcDs3f-14" value="" style="shape=image;verticalLabelPosition=bottom;labelBackgroundColor=default;verticalAlign=top;aspect=fixed;imageAspect=0;image=data:image/png,iVBORw0KGgoAAAANSUhEUgAAAL8AAAAiCAYAAAAOEgibAAAAAXNSR0IArs4c6QAAAARnQU1BAACxjwv8YQUAAAAJcEhZcwAADsMAAA7DAcdvqGQAAAf4SURBVHhe7Zw5iFQ/HMez/17x6KzEtRAUBG+8QMEDOwtRG3u1Urzw6CxUsN7dzsarEBsVD1DwwvsAwUbFws4VUXv3/z6ZfNffPF/mzZtxZxwnHwjJJpP7l+SXX54OjGW4RKIP+S/4iUTfkYQ/0bck4Z8gXr9+7WbPnu0GBgbcxo0bQ2yNCxcuuGnTpnnXr5w6dcqPjXUdB50/8Wd5//792KJFi8ZGR0fHTp48yZ1q7OrVqz7t/Pnz/m/c4OCgj+tXXr16NT4WGzZsCLGdI+38E8CsWbPcxYsX3fTp0102qT7uwYMH7tq1a2779u1ueHjYZYvBZQvEp/Ur8+fPDyHn1q5dG0KdI1l7OoBVcc6cOeNWrlzpw4lMAIO6w2awadMmH+4UaefvAEuWLHGZKuT27duXBN9w//79EHJu6dKlIdQ5kvBPMF++fPEO5s6d6/1EjYcPH3of9Q8VsdMk4Z9AEHosPZpYTXaixosXL7y/ePFi73eapoUf0xR6KzrakSNHQmw9TLQ1XY2MjISU3gWzpO0XY7Br1y5/eSV+27Zt4Zc1OMqJx9SJPzg46K5fv+7T7ty543348OFDCDUPi4m6aQdmVOoQlEea5oh26cQBpasf+fQY/IZ5LBqDZvrAb5AXmX1xCDtxN2/e9L9ZtWqV96ug8aU8/NHR0ZBSS6N/amtMXpsydR4+fHjcJCUn012erVu3lv4mhsyC7TrKaRfMlJgrKY/+Y74EfEyUqmvnzp0+Xtg+yNwJGhfMe5g7q5r2bHvkKBMoc+rUqXVpOLWtLD0G80c+HG0Ww8PDPj/xlB2D/JnwjefXWCi/3Lt373x8sxT1Z2hoyKdZU7J1RTJRKvz37t0b7yQuW02+MA18Hk1+Kzbsv0X4raAxUXlsO61QgDYKhFuTDYwdgkAaQmfTylB7GPPPnz/X1cFiZH5oE7/j72yX9enMgQTFpktwGi1ABJff4CgjjxZzTA6UX7KTR+NL+s+fP0NsObY/oHJOnDgxvlg1J/ptrJ5S4acSVQTZkeULiwm3BiUvFL2E+hATDsaDdJxOhImEOuxiUv3EMfn5sc7UgPH2FaWTT/mLoB4JjZ17ix2DPDb/uXPnQmw9agNjXUX4EXB7YqkcNgQtdovVWvInTOUXXttpTYaFTuOK0noBTjr1j3ARGlD62Q2YfNVPW/JY4S9Kl8DE1B6Vj4vNYyPhV36EMSbYWhxFJ2sV7AnCwshj23n37t0QW6OytWfevHkh5Nzbt29DqAaXwK9fv7pDhw51xXT1J8h2Ku9ngxq1yT9//tz769ev936nefr0qfe5zO3du9eHLbrIZsJXmP7kyRPvr1692vt5uORDtitXnkfqVv79+/f7S2ceLsHICbRj/qWuZ8+e+TBzUfZINmnSpBAKhEXQNOwEZMPlj0R2lJg61CtoRyraMcH2v91dqxXK6idd97KidNQC5S/a1e3J16h/Ug1xlrK7AqCGFeWtiq3r5cuXIbYeu/PnT6HKOz87ATsKfPz40fuAie/GjRvu+PHjIaY6RV/6teIopxUwkWlHWrFihffz3Lp1K4S682j1+PHjEHJu3bp1IfSLsvRHjx55n5OtaFe3bxHLli0Lod+RmTLb8Lwv3rx5E0L13+5Y+MQD8nmrwvdSgDzG6rp9+7b3i+pq6ZGLgQNr50XoqSBv9+4lfvz4EULOTZ48OYTqOXr0aAi5rnyqIOFkwvmALg/Cl21q0fTLly97P6ayffv2LYTiwms3ic2bN3tfSNhiaJOEdj9mK1M/UYtUF+1kY6yjdgBUg+OQrMquYyx2zPUKZZddazngotUNZG1D7SgC1bNRutp/5cqVEFNPTJ2x2HHIW7tUf1F+1CzGTapl0QW1Cqonpp5JLqmvSMVraee3x71eDjPdKrpT9CKfPn0KoRpc4vhMmUsgdONJ3l7w1qxZ4/082ukWLFjgfYv9kGzOnDneZxdn/kRRPgttGBoa8uFsEfx2ukyZMiWEfufYsWNuy5Yt46eGTle91lbB9iWmfuqUjhlgWhJ+e9xz5HDEHjhwIMT0LjNmzAgh506fPu0nGscdAgG5dOmS/zoTurHQrT5fNOFWIJYvXx5CxaDi8XsW0cyZM0Nsfb6izxd2797thRfVd8+ePSH2F3ZR6u5FOajD+Fb3/v79uxd81J+FCxeG2OawdxPKycN8MVfUF5XNcAJUhuOL7LheV3cs9tiX49ikj9bS0o0+N7KtQ1m6Vevkimz9stMzx+on6o3GBtWmSI0A4qXWWEdZypNPj703NMKqV5StByzbTvxYO6Fl4VcFjcxhvQiDZR956KfMaFaH7AaacPwiNCcIQwzp6/Qhb6q20Fe7wfF7yie+DBaM8qoeK4SUQXxZGxqhdjFX6rccfzdzn2hJ+FldNDw2Cb0GE8NklU2sFgWDm+geLC4JOrLYKpV1fnTgbPL96+LZs2dDbG/DZYuLpDXz5aHferncsWOH9xPdQW8V2QZcaM5tmrAImoIdElMbu343dN6JwOrBjZA+nV3uQ0yiW0jNaVfzaLjzczvnYYBvdgizQ/JdCf8o418ya4oi6wZgkTh48KAPY/FJdBe9Lrf9Pz6ERVCILnhy7Pixbyh6GV0k0fvtiYY+yY5Pv3HtPsok2sfq+7Hvr5qlofDrqGfiuey1c7n422GhswjoqwYXRxwWrUYms0TnyG/IjSxbZaT/tyfRt7T0wptI/Ask4U/0LUn4E32Kc/8DJ+S87aex7bQAAAAASUVORK5CYII=;" vertex="1" parent="1">
          <mxGeometry x="88.97" y="199.99" width="134.82" height="24" as="geometry" />
        </mxCell>
        <mxCell id="gyxe0gYEYOUFi3LcDs3f-22" value="" style="shape=image;verticalLabelPosition=bottom;labelBackgroundColor=default;verticalAlign=top;aspect=fixed;imageAspect=0;image=data:image/png,iVBORw0KGgoAAAANSUhEUgAAAOcAAAAqCAYAAABIgkxKAAAAAXNSR0IArs4c6QAAAARnQU1BAACxjwv8YQUAAAAJcEhZcwAADsMAAA7DAcdvqGQAAAd4SURBVHhe7Z3NT9VMFIfnvnsj8Cf4sTPBILJSFyYqYeEWiAlLCf4Bxq8liUjizqgQ9uCWBAIbTBQTFRaauDO6YO1n3HPtM/bwDvW2nfa2vb3X8ySTltZ2Zs6c35mPttdGM8AoilI7/gu3iqLUDBWnotQUFaei1BQVp6LUFBWnotQUFaei1BQVp6LUlI6Ic3t720xMTNikKL3K+/fvzYkTJ8z8/Lz5+vVreNSfSsVJAUdHR8358+fNjx8/zNTUVHhGUXqPI0eOmOvXr5u5uTlz8uRJs7KyEp7xhDeEquDdu3fNgYGBZn9/f3N5eTk8qii9z5cvX5pXrlzhTbzmzMxMeDSdSsT56dMnK0oKh0iz8ODBA3vty5cvwyOK0nnwYwRH8mV8fNxq4M6dO+GRZCoR5/DwsC3UkydPwiPprK2tNY8fP26vI6k4lTpAL0jvJ36ZRZxcKz6Nf6dRujgZwlIYCrW/vx8ejUciklRekopT6TQyinP9Mos4wdVDGqUvCN27d89uZ2dnTaPRsPut+Pz5s7lx44Y5ffq0OXbsmAkiiwmGAeHZeiBlXFhYCI/0HrKSzlb5Aws5rLouLi6a+/fvW9/MC7YNhGmCqV7qAlGp4lxfX7eFgEuXLtltHEePHrXOH/SQ5vHjx2ZsbMwMDQ2FZzsLRmSVGaMGQ3Pz8+fP8ExvwCo6AQcHZCX92bNn4RkF9vb27KrrmzdvzPT0tPXNdpBO5+HDh3YbS9iDloKMzbN2/QLDCK4nVT2sZRGL/GWOQGKfYQlzh16AKQRt5A7VaCuf+dC/jmuvrODLcj1+FkesOHFCcUwKEHVIbspxztO4reaTcr3v6lSUToiTfGRVTRIOXFT+We1aBpRBFukkH9ooyVF8cNcLonXjnNhV8utmxHbUMyvYRa6nLeJoKU4ip1ws6enTp+HZP4aORtuoON0CuNdmoSpxUlbKGO0lORYVTzvksWtRIDwEEb1/knNkIVp2ktSNPNzjkmjfbkXqkLeNxFZJQeovceKMXCiOKQ5LpJXz7JNocKJhKyO7XXdeYZUtThzKXRYnUZ8yhnVJdiWw+do1K9QFB5L6UQbqTN2LQoQp5aUO5MXf5M85CQKuiNl2K2LPvOKUNkm6/i9xYjwcQ3AFApzDsXCmJOoszuiwjvqQV7vDuiSS7Io4fe3qA/fg/hIASNSXehdx/ygIEMEL4nj0CpQhGgg4LuUq0+ZlIuWvVJxRMKwUBAci2kWN3Yo6ilOiuNwTwxQ1rMtKXrum4dqMVOR82RcJfNSp1Sgkb7tG65Y3cZ92kXuVKc7URymDg4PhnrFL7Kurq4eOdRMfPnww379/t/svXrwwGxsbHfsypiy7bm1t2W3QY9nHWDyWOnfunD1WBTyW2d3dtfuXL19OfezAy+FKa7yecwbqPthW2dBFc+rUKRNEc7t/4cIF++wy85cCBVKGXS9evGi3CBOB8tJElS8U8CxQuH37drgXT5aAdPPmTUZ6bSfu0w14ifPMmTN2+/btW7vtVoji3759M8FQ1gRDL7O5uWkmJycPvrnjJYgqKcOuOF4wrzTB0O3gpQleLDh79qwNRHm+K8zCq1ev7Ja844QnvbsEJyWGIJIkwpyBfybJd17EwoNc4z4uyELeuYkv1IU5mTsPZf7Xap5UNHntmhXyoU6SD3UterXWJRCczcddIHIpwi/qgNSB+uZBfC7ToxQXGpCbYMQ8BvUpQBJli1PAYagXK4uSH/scK2N1s1275oFVUdpB2oSEYxW9IJZWH/LjPOUow7ZV4dowK74BKlac3AADSgSUFTiisIB4khqXa7mGa/NQlThdyMftaUjUo6j8i7Bru3BvyZdEeRBuu481sJHcM85eEgDn5ubCI92J1DOPON1RU5LND4mTBsJpuIDGI0l045zckMhPYj/JaX0LEYebZxVDTRfKi0iivSmOnTXiF23XoiAvyhXtTfPa2g2mre5BXpKHz+eDdYW2k3rSllkRO6Rde0icGE0yjQ473KgoCcdKQ5zbd9iGA5OX29AkKoIwqnDaKOTr2oayZSHNro1G4+A8yceuRUJ5aB83EOWxs1tP2ksCMlsZjbB1699NYBOCDnWTepJoL85JfdOQYJg2OjokTskMI7fKSKI8N/d1UBqda2j4tGgZFWRS6oRIsQlRzzfQCFLmOLvevXvXns9i17LArggoj32lntgoOjXg76pHP0USDaBxiTZOAkHy79BDWpBKXBAqCok03T7PUOKR4TjJtwf510CM0mv6BKrSfwkBlpaW7MP/W7du6Rf2Pcrr16/tlnbmlyyUv7l27Zp9Qy0YWXh9sF2JOHkY/fz5czMwMGCuXr3a0bdylHKgfWFkZMRulf+R32vmpReEySuVXoQ9aCUw3JFFA7admDcq5SDDtU7PmesE/o49sA0p61pFJT2nwHCHl80DUZq+vj7z6NGj8IzSzfDfDsgHBb32+0rt8OvXL/ujYEznPn78aH9/KAsNFBruK0oumKbwjrIwPDxsdnZ2wr+UvKg4FaWmVDqsVRTFHxWnotQUFaei1BQVp6LUEmN+A5Sr/UCydy+VAAAAAElFTkSuQmCC;" vertex="1" parent="1">
          <mxGeometry x="275.88" y="196.45" width="171" height="31.09" as="geometry" />
        </mxCell>
        <mxCell id="gyxe0gYEYOUFi3LcDs3f-25" value="" style="shape=parallelogram;perimeter=parallelogramPerimeter;whiteSpace=wrap;html=1;fixedSize=1;" vertex="1" parent="1">
          <mxGeometry x="40" y="280" width="210" height="40" as="geometry" />
        </mxCell>
        <mxCell id="gyxe0gYEYOUFi3LcDs3f-26" value="" style="shape=image;verticalLabelPosition=bottom;labelBackgroundColor=default;verticalAlign=top;aspect=fixed;imageAspect=0;image=data:image/png,iVBORw0KGgoAAAANSUhEUgAAAHkAAAApCAYAAAARdIa+AAAAAXNSR0IArs4c6QAAAARnQU1BAACxjwv8YQUAAAAJcEhZcwAADsMAAA7DAcdvqGQAAATQSURBVHhe7Zs7Th0xFIaHLACJuwVoKBASj4YFAC0VdwuwBG6LEEj0UNLBBkCCggZoEEiwACipQCyB3M/Mf+M48/DMmCjB/iTLM9cTH5/zHz9mkox9DMkS35ofeZ34xiSRIyCJHAFJ5AhIIkdAEjkCksgRkESOgCRyBCSRIyCJHAFJ5AhoLPLj42O2urqajY2NZVNTU+be5fr62rSr9Hq9vCUc2Oj3+6Zv2eH+5OQkGwwGQWzavlK/vb3lLZ9t2JN/2AwFPhBb2X19fc1bPnl+fh6Ny8tP/hbKl6enp4+JiQn+1mpUFhYW8tbfeXh4qH2mLRsbG6bflZUVYweGgfhYX18f2ZycnDS/t4V+XV8PDw9N2/Hx8W+/q+zt7Zn2Lpyenv7R78HBQd7657iIQR2NRKZDAgx2QBVoF7UTlFBsbm6aPrHvcnV1NbKpcbYBf4YzZCQaSUqf3CMCQZZPdtCpu0Ci0gfJxDWJSr+aJPzGNYUJRwx8EstbZDqlcwyBnXFFIuI8bV1nlA3OD5coEwiNw8YWuUti4ZudJCQ3fW5tbRl/3KTmd9klTm2hXzt5EVD9Am3YL/K9ikYz2UUDwEkXBKEtxBIGOKYZU9annXiuEF3QTMY+NlxsMUi0UGiiUBAY+2386iSynC/aF2grm3FtsPfBsj4VbOyGAluyW7RFgC1yyOQC9Utpm0CdRLaXKRstmyH3YgJMnyRPGUq6MjHa4LM62CKHRluFzwGrjE7vyTMzM/nV57FebG9vZ8O9w7xihOLi4sLUy8vLpnbB/t3dnbmem5szdQhubm5MjT+zs7Pm2uXy8tLUQyFMHZL5+XlT397emroNnUSenp7Or7Ls5eXF1Ly/np+fZ0dHR+Y+FO/v76YeHx83tcv+/n5+lWVLS0v5VXfu7+9NXZZcvDvjL6ytrZk6FGdnZ9nOzo65xv+ibxJe5DO6Ne5hiNNfyOVSYIOyu7ub//ILe0mlhDoHgPrUO7KLzgohzx/A1kCfeqOoGkMdnUW2Xy8QOrSzQsF2338VDJ0PSLJQ2K9kZYce7NGuJA8B8cMn+bq4uGhs2JMHe75nns4i69AhZ4teMVyUGE0EUf84rwMQTnJPLZGrVhFbNJ8AyTdKkV/6MFN1KPL1lfEjqr5HUDRZBoPBaBz4TuHa97TdWWR7qfRdpuU4xRe9d7tFYulkXbWk2SL7zDx7nPSvDx362sTv1FUrl6+v9nPuamiPW4Wk8KWzyMoqMtV3mW4jMiAMAeDPEXTNLoKu/jTLi2gqsp5lhklUFe6brFqUKvQMzxd9NdNKhf8+Y7fpLLKM+y4dIMd9Zj4BdvdhF2azAlCFLXJVMoCSl1IUdF+a+PpVdBJZwW1y6tOsQ5C6QPvss6BA1i1hJAvP1SUNaHuoS5wqmvj6lbQWWQL7BMwGwXDa5+BD/5SqVcKenVUzTjOThPDZVvr9/uj5tjTx9SvxFhkx2QdBWd50CUIE+vDNaolXFiTE0qm7bjVhltfNdJter2f6bbr/iaa+fiXeIiuYKk1ncBsIMLaYDfYhB3ERXmNqK0QZCKMPEE0S41/FW2SJS3b+zeWH5ZgVw00yxoEAVUt0W/BPIsvW/0z6T+gRkP61ZgQkkSMgiRwBSeQISCJHQBI5ApLI354s+wnxr1TQZmhLhwAAAABJRU5ErkJggg==;" vertex="1" parent="1">
          <mxGeometry x="102.21" y="285.5" width="85.59" height="29" as="geometry" />
        </mxCell>
        <mxCell id="gyxe0gYEYOUFi3LcDs3f-37" value="" style="endArrow=classic;html=1;rounded=0;entryX=0.268;entryY=0.015;entryDx=0;entryDy=0;entryPerimeter=0;exitX=0.098;exitY=0.996;exitDx=0;exitDy=0;exitPerimeter=0;" edge="1" parent="1" source="gyxe0gYEYOUFi3LcDs3f-40" target="gyxe0gYEYOUFi3LcDs3f-24">
          <mxGeometry width="50" height="50" relative="1" as="geometry">
            <mxPoint x="198" y="170" as="sourcePoint" />
            <mxPoint x="250" y="290" as="targetPoint" />
            <Array as="points">
              <mxPoint x="320" y="170" />
            </Array>
          </mxGeometry>
        </mxCell>
        <mxCell id="gyxe0gYEYOUFi3LcDs3f-38" value="" style="endArrow=none;html=1;rounded=0;" edge="1" parent="1">
          <mxGeometry width="50" height="50" relative="1" as="geometry">
            <mxPoint x="119" y="170" as="sourcePoint" />
            <mxPoint x="190" y="170" as="targetPoint" />
          </mxGeometry>
        </mxCell>
        <mxCell id="gyxe0gYEYOUFi3LcDs3f-40" value="" style="shape=requiredInterface;html=1;verticalLabelPosition=bottom;sketch=0;rotation=-90;" vertex="1" parent="1">
          <mxGeometry x="192" y="163" width="5" height="10" as="geometry" />
        </mxCell>
      </root>
    </mxGraphModel>
  </diagram>
</mxfile>
